<svg layerName="Vector" viewBox="0 0 73.85 80" width="73.85" height="80" xmlns="http://www.w3.org/2000/svg" style="width: 73.85px; height: 80px; overflow-x: visible; overflow-y: visible; flex-shrink: 0">
  <path d="M41.484 78.671C39.440 81.245 35.296 79.834 35.247 76.548C35.247 76.548 34.872 51.518 34.872 51.518C34.872 51.518 7.009 51.518 7.009 51.518C1.155 51.518 -2.110 44.756 1.530 40.172C1.530 40.172 32.371 1.329 32.371 1.329C34.415 -1.245 38.559 0.166 38.608 3.452C38.608 3.452 38.772 28.483 38.772 28.483C38.772 28.483 66.846 28.483 66.846 28.483C72.700 28.483 75.965 35.244 72.325 39.828C72.325 39.828 41.484 78.671 41.484 78.671Z" vector-effect="non-scaling-stroke" fill="none" stroke="rgb(255 255 255 / 20%)" stroke-width="4.327" />
</svg>