<svg width="100%" height="100%" viewBox="0 0 476 284" xmlns="http://www.w3.org/2000/svg" preserveAspectRatio="xMidYMid meet">
  <defs><filter id="_8beomj_flutter_inactive" x="258.757" y="91.837" width="20.255" height="14.571" filterUnits="userSpaceOnUse" color-interpolation-filters="sRGB"><feFlood flood-opacity="0" result="BackgroundImageFix"/><feColorMatrix in="SourceAlpha" type="matrix" values="0 0 0 0 0 0 0 0 0 0 0 0 0 0 0 0 0 0 127 0" result="hardAlpha"/><feOffset/><feGaussianBlur stdDeviation="0.375"/><feComposite in2="hardAlpha" operator="out"/><feColorMatrix type="matrix" values="0 0 0 0 0 0 0 0 0 0 0 0 0 0 0 0 0 0 1 0"/><feBlend mode="normal" in2="BackgroundImageFix" result="effect1_dropShadow_flutter"/><feBlend mode="normal" in="SourceGraphic" in2="effect1_dropShadow_flutter" result="shape"/><feColorMatrix in="SourceAlpha" type="matrix" values="0 0 0 0 0 0 0 0 0 0 0 0 0 0 0 0 0 0 127 0" result="hardAlpha"/><feOffset/><feGaussianBlur stdDeviation="0.188"/><feComposite in2="hardAlpha" operator="arithmetic" k2="-1" k3="1"/><feColorMatrix type="matrix" values="0 0 0 0 1 0 0 0 0 1 0 0 0 0 1 0 0 0 0.25 0"/><feBlend mode="normal" in2="shape" result="effect2_innerShadow_flutter"/><feColorMatrix in="SourceAlpha" type="matrix" values="0 0 0 0 0 0 0 0 0 0 0 0 0 0 0 0 0 0 127 0" result="hardAlpha"/><feOffset dy="6"/><feGaussianBlur stdDeviation="1.5"/><feComposite in2="hardAlpha" operator="arithmetic" k2="-1" k3="1"/><feColorMatrix type="matrix" values="0 0 0 0 1 0 0 0 0 1 0 0 0 0 1 0 0 0 0.25 0"/><feBlend mode="normal" in2="effect2_innerShadow_flutter" result="effect3_innerShadow_flutter"/></filter></defs>
  <defs><filter id="_8beomj0" x="95.537" y="56.239" width="228.33" height="168.928" filterUnits="userSpaceOnUse" color-interpolation-filters="sRGB"><feFlood flood-opacity="0" result="BackgroundImageFix"/><feBlend mode="normal" in="SourceGraphic" in2="BackgroundImageFix" result="shape"/><feTurbulence type="fractalNoise" baseFrequency="2 2" stitchTiles="stitch" numOctaves="3" result="noise" seed="2233"/><feColorMatrix in="noise" type="luminanceToAlpha" result="alphaNoise"/><feComponentTransfer in="alphaNoise" result="coloredNoise1"><feFuncA type="discrete" tableValues="1 1 1 1 1 1 1 1 1 1 1 1 1 1 1 1 1 1 1 1 1 1 1 1 1 1 1 1 1 1 1 1 1 1 1 1 1 1 1 1 1 1 1 1 1 1 1 1 1 1 1 0 0 0 0 0 0 0 0 0 0 0 0 0 0 0 0 0 0 0 0 0 0 0 0 0 0 0 0 0 0 0 0 0 0 0 0 0 0 0 0 0 0 0 0 0 0 0 0 0"/></feComponentTransfer><feComposite operator="in" in2="shape" in="coloredNoise1" result="noise1Clipped"/><feFlood flood-color="rgba(0, 0, 0, 0.25)" result="color1Flood"/><feComposite operator="in" in2="noise1Clipped" in="color1Flood" result="color1"/><feMerge result="effect1_noise_44_1468"><feMergeNode in="shape"/><feMergeNode in="color1"/></feMerge></filter><filter id="_8beomj1" x="72.25" y="53.078" width="331.5" height="179.405" filterUnits="userSpaceOnUse" color-interpolation-filters="sRGB"><feFlood flood-opacity="0" result="BackgroundImageFix"/><feBlend mode="normal" in="SourceGraphic" in2="BackgroundImageFix" result="shape"/><feGaussianBlur stdDeviation="0.25" result="effect1_foregroundBlur_44_1468"/></filter><filter id="_8beomj2" x="180.635" y="172.463" width="65.424" height="35.314" filterUnits="userSpaceOnUse" color-interpolation-filters="sRGB"><feFlood flood-opacity="0" result="BackgroundImageFix"/><feBlend mode="normal" in="SourceGraphic" in2="BackgroundImageFix" result="shape"/><feColorMatrix in="SourceAlpha" type="matrix" values="0 0 0 0 0 0 0 0 0 0 0 0 0 0 0 0 0 0 127 0" result="hardAlpha"/><feOffset/><feGaussianBlur stdDeviation="0.188"/><feComposite in2="hardAlpha" operator="arithmetic" k2="-1" k3="1"/><feColorMatrix type="matrix" values="0 0 0 0 1 0 0 0 0 1 0 0 0 0 1 0 0 0 0.25 0"/><feBlend mode="normal" in2="shape" result="effect1_innerShadow_44_1468"/></filter><filter id="_8beomj3" x="181.784" y="173.07" width="59.802" height="34.63" filterUnits="userSpaceOnUse" color-interpolation-filters="sRGB"><feFlood flood-opacity="0" result="BackgroundImageFix"/><feBlend mode="normal" in="SourceGraphic" in2="BackgroundImageFix" result="shape"/><feColorMatrix in="SourceAlpha" type="matrix" values="0 0 0 0 0 0 0 0 0 0 0 0 0 0 0 0 0 0 127 0" result="hardAlpha"/><feOffset/><feGaussianBlur stdDeviation="0.188"/><feComposite in2="hardAlpha" operator="arithmetic" k2="-1" k3="1"/><feColorMatrix type="matrix" values="0 0 0 0 1 0 0 0 0 1 0 0 0 0 1 0 0 0 0.25 0"/><feBlend mode="normal" in2="shape" result="effect1_innerShadow_44_1468"/></filter><filter id="_8beomj4" x="355.861" y="131.636" width="31.833" height="17.135" filterUnits="userSpaceOnUse" color-interpolation-filters="sRGB"><feFlood flood-opacity="0" result="BackgroundImageFix"/><feBlend mode="normal" in="SourceGraphic" in2="BackgroundImageFix" result="shape"/><feColorMatrix in="SourceAlpha" type="matrix" values="0 0 0 0 0 0 0 0 0 0 0 0 0 0 0 0 0 0 127 0" result="hardAlpha"/><feOffset/><feGaussianBlur stdDeviation="0.188"/><feComposite in2="hardAlpha" operator="arithmetic" k2="-1" k3="1"/><feColorMatrix type="matrix" values="0 0 0 0 1 0 0 0 0 1 0 0 0 0 1 0 0 0 0.1 0"/><feBlend mode="normal" in2="shape" result="effect1_innerShadow_44_1468"/></filter><filter id="_8beomj5" x="209.806" y="63.037" width="30.138" height="20.283" filterUnits="userSpaceOnUse" color-interpolation-filters="sRGB"><feFlood flood-opacity="0" result="BackgroundImageFix"/><feColorMatrix in="SourceAlpha" type="matrix" values="0 0 0 0 0 0 0 0 0 0 0 0 0 0 0 0 0 0 127 0" result="hardAlpha"/><feOffset/><feGaussianBlur stdDeviation="0.375"/><feComposite in2="hardAlpha" operator="out"/><feColorMatrix type="matrix" values="0 0 0 0 0 0 0 0 0 0 0 0 0 0 0 0 0 0 1 0"/><feBlend mode="normal" in2="BackgroundImageFix" result="effect1_dropShadow_44_1468"/><feBlend mode="normal" in="SourceGraphic" in2="effect1_dropShadow_44_1468" result="shape"/><feColorMatrix in="SourceAlpha" type="matrix" values="0 0 0 0 0 0 0 0 0 0 0 0 0 0 0 0 0 0 127 0" result="hardAlpha"/><feOffset/><feGaussianBlur stdDeviation="0.188"/><feComposite in2="hardAlpha" operator="arithmetic" k2="-1" k3="1"/><feColorMatrix type="matrix" values="0 0 0 0 1 0 0 0 0 1 0 0 0 0 1 0 0 0 0.25 0"/><feBlend mode="normal" in2="shape" result="effect2_innerShadow_44_1468"/><feColorMatrix in="SourceAlpha" type="matrix" values="0 0 0 0 0 0 0 0 0 0 0 0 0 0 0 0 0 0 127 0" result="hardAlpha"/><feOffset dy="6"/><feGaussianBlur stdDeviation="1.5"/><feComposite in2="hardAlpha" operator="arithmetic" k2="-1" k3="1"/><feColorMatrix type="matrix" values="0 0 0 0 1 0 0 0 0 1 0 0 0 0 1 0 0 0 0.25 0"/><feBlend mode="normal" in2="effect2_innerShadow_44_1468" result="effect3_innerShadow_44_1468"/></filter><filter id="_8beomj6" x="258.007" y="91.087" width="21.755" height="15.321" filterUnits="userSpaceOnUse" color-interpolation-filters="sRGB"><feFlood flood-opacity="0" result="BackgroundImageFix"/><feColorMatrix in="SourceAlpha" type="matrix" values="0 0 0 0 0 0 0 0 0 0 0 0 0 0 0 0 0 0 127 0" result="hardAlpha"/><feOffset/><feGaussianBlur stdDeviation="0.375"/><feComposite in2="hardAlpha" operator="out"/><feColorMatrix type="matrix" values="0 0 0 0 0.243 0 0 0 0 0.812 0 0 0 0 0.557 0 0 0 1 0"/><feBlend mode="normal" in2="BackgroundImageFix" result="effect1_dropShadow_44_1468"/><feColorMatrix in="SourceAlpha" type="matrix" values="0 0 0 0 0 0 0 0 0 0 0 0 0 0 0 0 0 0 127 0" result="hardAlpha"/><feOffset/><feGaussianBlur stdDeviation="0.75"/><feComposite in2="hardAlpha" operator="out"/><feColorMatrix type="matrix" values="0 0 0 0 0 0 0 0 0 0 0 0 0 0 0 0 0 0 0.25 0"/><feBlend mode="normal" in2="effect1_dropShadow_44_1468" result="effect2_dropShadow_44_1468"/><feBlend mode="normal" in="SourceGraphic" in2="effect2_dropShadow_44_1468" result="shape"/><feColorMatrix in="SourceAlpha" type="matrix" values="0 0 0 0 0 0 0 0 0 0 0 0 0 0 0 0 0 0 127 0" result="hardAlpha"/><feOffset/><feGaussianBlur stdDeviation="0.188"/><feComposite in2="hardAlpha" operator="arithmetic" k2="-1" k3="1"/><feColorMatrix type="matrix" values="0 0 0 0 1 0 0 0 0 1 0 0 0 0 1 0 0 0 0.25 0"/><feBlend mode="normal" in2="shape" result="effect3_innerShadow_44_1468"/><feColorMatrix in="SourceAlpha" type="matrix" values="0 0 0 0 0 0 0 0 0 0 0 0 0 0 0 0 0 0 127 0" result="hardAlpha"/><feOffset dy="3"/><feGaussianBlur stdDeviation="1.5"/><feComposite in2="hardAlpha" operator="arithmetic" k2="-1" k3="1"/><feColorMatrix type="matrix" values="0 0 0 0 0 0 0 0 0 0 0 0 0 0 0 0 0 0 0.32 0"/><feBlend mode="normal" in2="effect3_innerShadow_44_1468" result="effect4_innerShadow_44_1468"/></filter><filter id="_8beomj7" x="157.783" y="92.673" width="23.252" height="16.307" filterUnits="userSpaceOnUse" color-interpolation-filters="sRGB"><feFlood flood-opacity="0" result="BackgroundImageFix"/><feColorMatrix in="SourceAlpha" type="matrix" values="0 0 0 0 0 0 0 0 0 0 0 0 0 0 0 0 0 0 127 0" result="hardAlpha"/><feOffset/><feGaussianBlur stdDeviation="0.375"/><feComposite in2="hardAlpha" operator="out"/><feColorMatrix type="matrix" values="0 0 0 0 0 0 0 0 0 0 0 0 0 0 0 0 0 0 1 0"/><feBlend mode="normal" in2="BackgroundImageFix" result="effect1_dropShadow_44_1468"/><feBlend mode="normal" in="SourceGraphic" in2="effect1_dropShadow_44_1468" result="shape"/><feColorMatrix in="SourceAlpha" type="matrix" values="0 0 0 0 0 0 0 0 0 0 0 0 0 0 0 0 0 0 127 0" result="hardAlpha"/><feOffset/><feGaussianBlur stdDeviation="0.188"/><feComposite in2="hardAlpha" operator="arithmetic" k2="-1" k3="1"/><feColorMatrix type="matrix" values="0 0 0 0 1 0 0 0 0 1 0 0 0 0 1 0 0 0 0.25 0"/><feBlend mode="normal" in2="shape" result="effect2_innerShadow_44_1468"/><feColorMatrix in="SourceAlpha" type="matrix" values="0 0 0 0 0 0 0 0 0 0 0 0 0 0 0 0 0 0 127 0" result="hardAlpha"/><feOffset dy="6"/><feGaussianBlur stdDeviation="1.5"/><feComposite in2="hardAlpha" operator="arithmetic" k2="-1" k3="1"/><feColorMatrix type="matrix" values="0 0 0 0 1 0 0 0 0 1 0 0 0 0 1 0 0 0 0.25 0"/><feBlend mode="normal" in2="effect2_innerShadow_44_1468" result="effect3_innerShadow_44_1468"/></filter><filter id="_8beomj8" x="296.257" y="105.954" width="21.623" height="15.502" filterUnits="userSpaceOnUse" color-interpolation-filters="sRGB"><feFlood flood-opacity="0" result="BackgroundImageFix"/><feColorMatrix in="SourceAlpha" type="matrix" values="0 0 0 0 0 0 0 0 0 0 0 0 0 0 0 0 0 0 127 0" result="hardAlpha"/><feOffset/><feGaussianBlur stdDeviation="0.375"/><feComposite in2="hardAlpha" operator="out"/><feColorMatrix type="matrix" values="0 0 0 0 0 0 0 0 0 0 0 0 0 0 0 0 0 0 1 0"/><feBlend mode="normal" in2="BackgroundImageFix" result="effect1_dropShadow_44_1468"/><feBlend mode="normal" in="SourceGraphic" in2="effect1_dropShadow_44_1468" result="shape"/><feColorMatrix in="SourceAlpha" type="matrix" values="0 0 0 0 0 0 0 0 0 0 0 0 0 0 0 0 0 0 127 0" result="hardAlpha"/><feOffset/><feGaussianBlur stdDeviation="0.188"/><feComposite in2="hardAlpha" operator="arithmetic" k2="-1" k3="1"/><feColorMatrix type="matrix" values="0 0 0 0 1 0 0 0 0 1 0 0 0 0 1 0 0 0 0.25 0"/><feBlend mode="normal" in2="shape" result="effect2_innerShadow_44_1468"/><feColorMatrix in="SourceAlpha" type="matrix" values="0 0 0 0 0 0 0 0 0 0 0 0 0 0 0 0 0 0 127 0" result="hardAlpha"/><feOffset dy="6"/><feGaussianBlur stdDeviation="1.5"/><feComposite in2="hardAlpha" operator="arithmetic" k2="-1" k3="1"/><feColorMatrix type="matrix" values="0 0 0 0 1 0 0 0 0 1 0 0 0 0 1 0 0 0 0.25 0"/><feBlend mode="normal" in2="effect2_innerShadow_44_1468" result="effect3_innerShadow_44_1468"/></filter><filter id="_8beomj9" x="196.593" y="112.325" width="27.927" height="19.006" filterUnits="userSpaceOnUse" color-interpolation-filters="sRGB"><feFlood flood-opacity="0" result="BackgroundImageFix"/><feColorMatrix in="SourceAlpha" type="matrix" values="0 0 0 0 0 0 0 0 0 0 0 0 0 0 0 0 0 0 127 0" result="hardAlpha"/><feOffset/><feGaussianBlur stdDeviation="0.375"/><feComposite in2="hardAlpha" operator="out"/><feColorMatrix type="matrix" values="0 0 0 0 0 0 0 0 0 0 0 0 0 0 0 0 0 0 1 0"/><feBlend mode="normal" in2="BackgroundImageFix" result="effect1_dropShadow_44_1468"/><feBlend mode="normal" in="SourceGraphic" in2="effect1_dropShadow_44_1468" result="shape"/><feColorMatrix in="SourceAlpha" type="matrix" values="0 0 0 0 0 0 0 0 0 0 0 0 0 0 0 0 0 0 127 0" result="hardAlpha"/><feOffset/><feGaussianBlur stdDeviation="0.188"/><feComposite in2="hardAlpha" operator="arithmetic" k2="-1" k3="1"/><feColorMatrix type="matrix" values="0 0 0 0 1 0 0 0 0 1 0 0 0 0 1 0 0 0 0.25 0"/><feBlend mode="normal" in2="shape" result="effect2_innerShadow_44_1468"/><feColorMatrix in="SourceAlpha" type="matrix" values="0 0 0 0 0 0 0 0 0 0 0 0 0 0 0 0 0 0 127 0" result="hardAlpha"/><feOffset dy="6"/><feGaussianBlur stdDeviation="1.5"/><feComposite in2="hardAlpha" operator="arithmetic" k2="-1" k3="1"/><feColorMatrix type="matrix" values="0 0 0 0 1 0 0 0 0 1 0 0 0 0 1 0 0 0 0.25 0"/><feBlend mode="normal" in2="effect2_innerShadow_44_1468" result="effect3_innerShadow_44_1468"/></filter><filter id="_8beomj10" x="238.444" y="132.687" width="30.138" height="20.283" filterUnits="userSpaceOnUse" color-interpolation-filters="sRGB"><feFlood flood-opacity="0" result="BackgroundImageFix"/><feColorMatrix in="SourceAlpha" type="matrix" values="0 0 0 0 0 0 0 0 0 0 0 0 0 0 0 0 0 0 127 0" result="hardAlpha"/><feOffset/><feGaussianBlur stdDeviation="0.375"/><feComposite in2="hardAlpha" operator="out"/><feColorMatrix type="matrix" values="0 0 0 0 0 0 0 0 0 0 0 0 0 0 0 0 0 0 1 0"/><feBlend mode="normal" in2="BackgroundImageFix" result="effect1_dropShadow_44_1468"/><feBlend mode="normal" in="SourceGraphic" in2="effect1_dropShadow_44_1468" result="shape"/><feColorMatrix in="SourceAlpha" type="matrix" values="0 0 0 0 0 0 0 0 0 0 0 0 0 0 0 0 0 0 127 0" result="hardAlpha"/><feOffset/><feGaussianBlur stdDeviation="0.188"/><feComposite in2="hardAlpha" operator="arithmetic" k2="-1" k3="1"/><feColorMatrix type="matrix" values="0 0 0 0 1 0 0 0 0 1 0 0 0 0 1 0 0 0 0.25 0"/><feBlend mode="normal" in2="shape" result="effect2_innerShadow_44_1468"/><feColorMatrix in="SourceAlpha" type="matrix" values="0 0 0 0 0 0 0 0 0 0 0 0 0 0 0 0 0 0 127 0" result="hardAlpha"/><feOffset dy="6"/><feGaussianBlur stdDeviation="1.5"/><feComposite in2="hardAlpha" operator="arithmetic" k2="-1" k3="1"/><feColorMatrix type="matrix" values="0 0 0 0 1 0 0 0 0 1 0 0 0 0 1 0 0 0 0.25 0"/><feBlend mode="normal" in2="effect2_innerShadow_44_1468" result="effect3_innerShadow_44_1468"/></filter><linearGradient id="_8beomj11" x1="224.5" y1="54.703" x2="224.5" y2="99.703" gradientUnits="userSpaceOnUse"><stop stop-color="white" style="stop-color:white;stop-opacity:1;"/><stop offset="1" stop-color="white" stop-opacity="0" style="stop-color:none;stop-opacity:0;"/></linearGradient><linearGradient id="_8beomj12" x1="266.5" y1="78.703" x2="266.5" y2="120.703" gradientUnits="userSpaceOnUse"><stop stop-color="white" style="stop-color:white;stop-opacity:1;"/><stop offset="1" stop-color="white" stop-opacity="0" style="stop-color:none;stop-opacity:0;"/></linearGradient><linearGradient id="_8beomj13" x1="170.5" y1="81.703" x2="170.5" y2="126.703" gradientUnits="userSpaceOnUse"><stop stop-color="white" style="stop-color:white;stop-opacity:1;"/><stop offset="1" stop-color="white" stop-opacity="0" style="stop-color:none;stop-opacity:0;"/></linearGradient><linearGradient id="_8beomj14" x1="307" y1="95.203" x2="307" y2="140.203" gradientUnits="userSpaceOnUse"><stop stop-color="white" style="stop-color:white;stop-opacity:1;"/><stop offset="1" stop-color="white" stop-opacity="0" style="stop-color:none;stop-opacity:0;"/></linearGradient><linearGradient id="_8beomj15" x1="211" y1="102.703" x2="211" y2="147.703" gradientUnits="userSpaceOnUse"><stop stop-color="white" style="stop-color:white;stop-opacity:1;"/><stop offset="1" stop-color="white" stop-opacity="0" style="stop-color:none;stop-opacity:0;"/></linearGradient><linearGradient id="_8beomj16" x1="253" y1="123.703" x2="253" y2="168.703" gradientUnits="userSpaceOnUse"><stop stop-color="white" style="stop-color:white;stop-opacity:1;"/><stop offset="1" stop-color="white" stop-opacity="0" style="stop-color:none;stop-opacity:0;"/></linearGradient></defs>
  <style>
    .library-pad {
      cursor: pointer;
      transform-box: fill-box;
      transform-origin: center;
      transition: transform 160ms cubic-bezier(0.77, 0, 0.175, 1);
    }
    .library-pad > path,
    .library-pad > .library-pad-icon path {
      transition: fill 150ms ease, stroke 150ms ease;
    }
    .library-pad:not([data-library-pad="flutter"])[data-active] {
      transform: translateY(3px);
    }
    .library-pad[data-library-pad="flutter"]:not([data-active]) {
      transform: translateY(-3px);
    }
    .library-pad:not([data-library-pad="flutter"])[data-active] > path:nth-of-type(1),
    .library-pad:not([data-library-pad="flutter"])[data-active] > path:nth-of-type(3),
    .library-pad:not([data-library-pad="flutter"])[data-active] > path:nth-of-type(4) {
      fill: color(display-p3 0 0.384 0.224);
    }
    .library-pad[data-active] > path:nth-of-type(5) {
      stroke: color(display-p3 0.243 0.812 0.557 / 20%);
    }
    .library-pad[data-active] > .library-pad-icon path {
      fill: white;
    }
    .library-pad[data-library-pad="flutter"][data-active] > path:nth-of-type(1),
    .library-pad[data-library-pad="flutter"][data-active] > path:nth-of-type(2),
    .library-pad[data-library-pad="flutter"][data-active] > path:nth-of-type(4) {
      fill: color(display-p3 0 0.384 0.224);
    }
    @media (prefers-reduced-motion: reduce) {
      .library-pad {
        transition-duration: 0ms;
      }
    }
  </style>
  <rect width="476" height="283.406" fill="color(display-p3 0.088 0.092 0.088)" />
  <g filter="url(#_8beomj0)">
    <rect x="95.787" y="56.489" width="227.83" height="168.428" fill="none" stroke="#FFFFFF14" stroke-width="0.5" stroke-dasharray="4 4" />
  </g>
  <rect x="255.5" y="43.394" width="203.419" height="194.618" fill="none" stroke="#FFFFFF14" stroke-width="0.5" />
  <g filter="url(#_8beomj1)">
    <path d="M229.95 55.728C235.018 53.194 240.982 53.194 246.05 55.728L403 134.203L238 216.703L73 134.203L229.95 55.728Z" fill="color(display-p3 0.098 0.102 0.098)" />
    <path fill-rule="evenodd" clip-rule="evenodd" d="M403 149.203V134.203L238 216.703V231.703L403 149.203Z" fill="color(display-p3 0.098 0.106 0.110)" />
    <path d="M238 216.703L73 134.203V146.422C73 148.126 73.963 149.685 75.487 150.447L238 231.703V216.703Z" fill="color(display-p3 0.074 0.078 0.082)" />
    <path d="M238 231.703L75.487 150.447C73.963 149.685 73 148.126 73 146.422V134.203L229.95 55.728C235.018 53.194 240.982 53.194 246.05 55.728L403 134.203V149.203L238 231.703ZM403 134.203L238 216.703M238 216.703L73 134.203M238 216.703V231.703" fill="none" stroke="#FFFFFF40" stroke-width="0.5" stroke-linecap="round" />
  </g>
  <g filter="url(#_8beomj2)">
    <path d="M182.748 177.125C182.341 176.908 182.062 176.669 181.912 176.407C181.768 176.148 181.746 175.883 181.846 175.612C181.95 175.339 182.175 175.076 182.52 174.823L183.432 175.246C183.209 175.428 183.065 175.604 182.998 175.775C182.931 175.945 182.942 176.107 183.03 176.26C183.124 176.41 183.29 176.548 183.528 176.675C183.761 176.799 183.985 176.885 184.2 176.935C184.42 176.981 184.629 176.992 184.825 176.967C185.022 176.942 185.199 176.881 185.357 176.782C185.52 176.68 185.623 176.57 185.665 176.452C185.708 176.333 185.677 176.187 185.572 176.014C185.467 175.84 185.269 175.615 184.979 175.336C184.694 175.067 184.493 174.828 184.377 174.619C184.26 174.41 184.241 174.217 184.318 174.04C184.395 173.864 184.573 173.688 184.853 173.513C185.163 173.319 185.51 173.188 185.892 173.121C186.285 173.053 186.688 173.053 187.101 173.119C187.519 173.189 187.927 173.329 188.325 173.54C188.717 173.749 188.977 173.972 189.104 174.211C189.238 174.453 189.251 174.698 189.146 174.948C189.05 175.197 188.846 175.442 188.532 175.681L187.628 175.253C187.81 175.109 187.932 174.962 187.995 174.813C188.062 174.666 188.06 174.524 187.987 174.385C187.92 174.243 187.775 174.113 187.553 173.995C187.24 173.829 186.917 173.743 186.584 173.736C186.262 173.729 185.983 173.799 185.749 173.945C185.592 174.044 185.499 174.145 185.471 174.248C185.444 174.351 185.482 174.477 185.586 174.626C185.69 174.776 185.866 174.966 186.113 175.198C186.446 175.51 186.669 175.785 186.781 176.021C186.893 176.257 186.901 176.473 186.804 176.669C186.706 176.864 186.51 177.054 186.215 177.238C185.92 177.423 185.576 177.543 185.183 177.599C184.795 177.651 184.389 177.638 183.965 177.56C183.551 177.481 183.146 177.336 182.748 177.125ZM187.442 179.621C186.838 179.3 186.544 178.938 186.562 178.535C186.579 178.132 186.9 177.735 187.526 177.344L191.06 175.136L191.894 175.58L188.33 177.807C187.933 178.055 187.72 178.295 187.692 178.527C187.669 178.756 187.835 178.965 188.19 179.153C188.545 179.342 188.919 179.421 189.313 179.389C189.712 179.354 190.11 179.212 190.507 178.964L194.072 176.737L194.906 177.181L191.372 179.389C190.746 179.78 190.086 179.997 189.391 180.039C188.695 180.081 188.046 179.942 187.442 179.621ZM190.628 181.174L196.047 177.788L197.796 178.717C198.188 178.926 198.461 179.151 198.615 179.391C198.774 179.635 198.806 179.878 198.71 180.122C198.625 180.365 198.41 180.595 198.064 180.811C197.718 181.027 197.335 181.171 196.917 181.242C196.508 181.314 196.087 181.313 195.653 181.242C195.229 181.169 194.822 181.029 194.43 180.82L193.516 180.335L191.462 181.617L190.628 181.174ZM194.271 179.862L195.098 180.302C195.5 180.516 195.876 180.624 196.224 180.627C196.573 180.63 196.897 180.538 197.197 180.35C197.503 180.159 197.639 179.964 197.606 179.764C197.573 179.564 197.355 179.357 196.953 179.143L196.126 178.704L194.271 179.862ZM194.9 183.445L201.972 180.938L203.053 181.513L199.287 185.778L198.421 185.317L201.681 181.745L195.766 183.906L194.9 183.445ZM197.234 183.053L198.229 182.726L200.263 183.807L199.777 184.405L197.234 183.053ZM200.134 186.228L205.553 182.842L207.19 183.713C207.81 184.042 208.152 184.374 208.215 184.708C208.279 185.042 208.079 185.354 207.616 185.643C207.392 185.783 207.138 185.88 206.854 185.935C206.575 185.987 206.279 185.991 205.966 185.948C205.663 185.905 205.368 185.81 205.082 185.664L205.128 185.635C205.472 185.818 205.705 186.007 205.826 186.201C205.958 186.394 205.985 186.585 205.909 186.774C205.837 186.96 205.672 187.133 205.412 187.296C204.934 187.594 204.39 187.735 203.781 187.717C203.183 187.699 202.576 187.527 201.962 187.2L200.134 186.228ZM201.716 186.204L202.718 186.737C203.083 186.931 203.422 187.032 203.734 187.039C204.051 187.043 204.335 186.967 204.584 186.811C204.849 186.646 204.962 186.468 204.924 186.277C204.892 186.089 204.701 185.902 204.351 185.716L203.35 185.184L201.716 186.204ZM204.09 184.721L204.909 185.156C205.258 185.342 205.581 185.438 205.878 185.442C206.179 185.444 206.452 185.368 206.697 185.216C206.946 185.06 207.055 184.897 207.023 184.727C206.996 184.554 206.808 184.374 206.458 184.188L205.64 183.753L204.09 184.721ZM204.43 188.512L211.502 186.005L212.583 186.58L208.816 190.845L207.95 190.384L211.21 186.812L205.296 188.973L204.43 188.512ZM206.764 188.12L207.758 187.793L209.793 188.874L209.307 189.472L206.764 188.12ZM211.337 192.326C210.929 192.109 210.651 191.87 210.501 191.608C210.357 191.349 210.335 191.084 210.434 190.813C210.539 190.54 210.764 190.277 211.109 190.024L212.02 190.447C211.798 190.629 211.653 190.805 211.587 190.976C211.52 191.146 211.531 191.308 211.619 191.461C211.713 191.611 211.879 191.749 212.117 191.876C212.35 192 212.574 192.086 212.789 192.136C213.009 192.182 213.217 192.193 213.414 192.168C213.611 192.143 213.788 192.082 213.946 191.983C214.109 191.881 214.211 191.771 214.254 191.653C214.297 191.534 214.266 191.388 214.161 191.215C214.056 191.041 213.858 190.815 213.568 190.537C213.283 190.268 213.082 190.029 212.966 189.82C212.849 189.611 212.829 189.418 212.907 189.241C212.984 189.065 213.162 188.889 213.442 188.714C213.752 188.52 214.099 188.389 214.481 188.322C214.874 188.254 215.277 188.254 215.69 188.32C216.108 188.39 216.516 188.53 216.913 188.741C217.305 188.95 217.565 189.173 217.693 189.412C217.827 189.654 217.84 189.899 217.735 190.149C217.639 190.398 217.435 190.643 217.121 190.882L216.217 190.454C216.399 190.31 216.521 190.163 216.583 190.014C216.651 189.867 216.649 189.725 216.576 189.586C216.509 189.444 216.364 189.314 216.142 189.196C215.829 189.03 215.506 188.944 215.173 188.937C214.851 188.93 214.572 189 214.338 189.146C214.181 189.245 214.088 189.346 214.06 189.449C214.033 189.552 214.071 189.678 214.175 189.827C214.279 189.977 214.454 190.167 214.702 190.399C215.035 190.711 215.258 190.986 215.37 191.222C215.482 191.458 215.49 191.674 215.393 191.87C215.295 192.065 215.099 192.255 214.804 192.439C214.509 192.624 214.165 192.744 213.772 192.8C213.383 192.852 212.977 192.839 212.554 192.761C212.14 192.682 211.735 192.537 211.337 192.326ZM214.468 193.85L219.887 190.464L223.352 192.306L222.596 192.778L219.966 191.38L218.386 192.367L220.921 193.715L220.188 194.172L217.653 192.825L216.058 193.821L218.752 195.254L217.996 195.726L214.468 193.85ZM223.918 198.874L224.674 198.402L226.025 199.121L229.933 196.679L228.582 195.961L229.338 195.489L232.866 197.365L232.11 197.837L230.759 197.118L226.851 199.56L228.202 200.278L227.446 200.75L223.918 198.874ZM228.604 201.366L234.023 197.98L235.04 198.521L232.61 202.18L236.892 199.505L237.71 199.94L232.291 203.326L231.274 202.785L233.704 199.126L229.422 201.801L228.604 201.366ZM235.114 204.968C234.658 204.726 234.386 204.449 234.297 204.137C234.213 203.828 234.301 203.497 234.559 203.146C234.817 202.795 235.236 202.438 235.816 202.076C236.401 201.71 236.987 201.439 237.574 201.263C238.16 201.086 238.724 201.009 239.266 201.032C239.818 201.055 240.322 201.188 240.777 201.43C241.291 201.703 241.56 202.034 241.584 202.424C241.613 202.816 241.391 203.225 240.917 203.649L239.997 203.213C240.294 202.936 240.439 202.683 240.431 202.455C240.433 202.227 240.299 202.041 240.029 201.897C239.754 201.751 239.442 201.679 239.094 201.682C238.745 201.685 238.368 201.759 237.963 201.902C237.557 202.045 237.13 202.257 236.682 202.536C236.24 202.813 235.911 203.074 235.696 203.318C235.486 203.56 235.392 203.78 235.415 203.981C235.437 204.181 235.586 204.355 235.862 204.501C236.153 204.656 236.509 204.722 236.929 204.698C237.35 204.674 237.8 204.552 238.281 204.331L239.109 204.815C238.393 205.153 237.685 205.335 236.984 205.362C236.283 205.39 235.659 205.258 235.114 204.968ZM239.436 207.126L240.444 206.496L241.525 207.071L240.517 207.7L239.436 207.126Z" fill="color(display-p3 0.132 0.143 0.148)" />
  </g>
  <g filter="url(#_8beomj3)">
    <path d="M182.748 177.125C182.341 176.908 182.062 176.669 181.912 176.407C181.768 176.148 181.746 175.883 181.846 175.612C181.95 175.339 182.175 175.076 182.52 174.823L183.432 175.246C183.209 175.428 183.065 175.604 182.998 175.775C182.931 175.945 182.942 176.107 183.03 176.26C183.124 176.41 183.29 176.548 183.528 176.675C183.761 176.799 183.985 176.885 184.2 176.935C184.42 176.981 184.629 176.992 184.825 176.967C185.022 176.942 185.199 176.881 185.357 176.782C185.52 176.68 185.623 176.57 185.665 176.452C185.708 176.333 185.677 176.187 185.572 176.014C185.467 175.84 185.269 175.614 184.979 175.336C184.694 175.067 184.493 174.828 184.377 174.619C184.26 174.41 184.241 174.217 184.318 174.04C184.395 173.864 184.573 173.688 184.853 173.513C185.163 173.319 185.51 173.188 185.892 173.121C186.285 173.053 186.688 173.053 187.101 173.119C187.519 173.189 187.927 173.329 188.325 173.54C188.717 173.749 188.977 173.972 189.105 174.211C189.238 174.453 189.251 174.698 189.146 174.948C189.051 175.197 188.846 175.442 188.532 175.681L187.628 175.253C187.81 175.109 187.932 174.962 187.995 174.813C188.062 174.666 188.06 174.524 187.988 174.385C187.92 174.243 187.775 174.113 187.553 173.995C187.24 173.829 186.917 173.743 186.584 173.736C186.262 173.729 185.983 173.799 185.749 173.945C185.592 174.044 185.499 174.145 185.471 174.248C185.444 174.351 185.482 174.477 185.586 174.626C185.69 174.776 185.866 174.966 186.113 175.198C186.446 175.51 186.669 175.785 186.781 176.021C186.893 176.257 186.901 176.473 186.804 176.669C186.707 176.864 186.51 177.054 186.215 177.238C185.92 177.423 185.576 177.543 185.183 177.599C184.795 177.651 184.389 177.638 183.965 177.56C183.551 177.481 183.146 177.336 182.748 177.125Z" fill="color(display-p3 0.098 0.106 0.110)" />
    <path d="M187.442 179.621C186.838 179.3 186.544 178.938 186.562 178.535C186.579 178.132 186.9 177.735 187.526 177.344L191.06 175.136L191.895 175.58L188.33 177.807C187.933 178.055 187.72 178.295 187.692 178.527C187.669 178.756 187.835 178.965 188.19 179.153C188.545 179.342 188.919 179.421 189.313 179.389C189.712 179.354 190.11 179.212 190.507 178.964L194.072 176.737L194.906 177.181L191.372 179.389C190.746 179.78 190.086 179.997 189.391 180.039C188.695 180.081 188.046 179.942 187.442 179.621Z" fill="color(display-p3 0.098 0.106 0.110)" />
    <path d="M190.628 181.174L196.047 177.788L197.796 178.717C198.188 178.926 198.461 179.15 198.615 179.391C198.774 179.635 198.806 179.878 198.71 180.122C198.625 180.365 198.41 180.595 198.064 180.811C197.718 181.027 197.335 181.171 196.917 181.242C196.508 181.314 196.087 181.313 195.653 181.242C195.229 181.169 194.822 181.029 194.43 180.82L193.516 180.335L191.463 181.617L190.628 181.174ZM194.271 179.862L195.098 180.302C195.5 180.516 195.876 180.624 196.224 180.627C196.573 180.63 196.897 180.538 197.197 180.35C197.503 180.159 197.639 179.964 197.606 179.764C197.573 179.564 197.355 179.357 196.953 179.143L196.126 178.704L194.271 179.862Z" fill="color(display-p3 0.098 0.106 0.110)" />
    <path d="M194.9 183.445L201.972 180.938L203.053 181.513L199.287 185.778L198.421 185.317L201.681 181.745L195.766 183.906L194.9 183.445ZM197.234 183.053L198.229 182.726L200.263 183.807L199.777 184.405L197.234 183.053Z" fill="color(display-p3 0.098 0.106 0.110)" />
    <path d="M200.134 186.228L205.553 182.842L207.19 183.713C207.81 184.042 208.152 184.374 208.215 184.708C208.279 185.042 208.079 185.353 207.616 185.643C207.392 185.783 207.138 185.88 206.854 185.935C206.575 185.987 206.279 185.991 205.966 185.948C205.663 185.905 205.368 185.81 205.082 185.664L205.128 185.635C205.472 185.818 205.705 186.007 205.826 186.2C205.958 186.394 205.985 186.585 205.909 186.774C205.837 186.96 205.672 187.133 205.412 187.296C204.934 187.594 204.39 187.735 203.781 187.717C203.183 187.699 202.576 187.527 201.962 187.2L200.134 186.228ZM201.716 186.204L202.718 186.737C203.083 186.931 203.422 187.032 203.734 187.039C204.052 187.043 204.335 186.967 204.584 186.811C204.849 186.646 204.962 186.468 204.924 186.277C204.892 186.089 204.701 185.902 204.351 185.716L203.35 185.184L201.716 186.204ZM204.09 184.721L204.909 185.156C205.258 185.342 205.581 185.438 205.878 185.442C206.18 185.444 206.452 185.368 206.697 185.216C206.946 185.06 207.055 184.897 207.023 184.727C206.996 184.554 206.808 184.374 206.458 184.188L205.64 183.753L204.09 184.721Z" fill="color(display-p3 0.098 0.106 0.110)" />
    <path d="M204.43 188.512L211.502 186.005L212.583 186.58L208.816 190.845L207.95 190.384L211.21 186.812L205.296 188.973L204.43 188.512ZM206.764 188.12L207.758 187.793L209.793 188.874L209.307 189.472L206.764 188.12Z" fill="color(display-p3 0.098 0.106 0.110)" />
    <path d="M211.337 192.326C210.929 192.109 210.651 191.87 210.501 191.608C210.357 191.349 210.335 191.084 210.434 190.813C210.539 190.54 210.764 190.277 211.109 190.024L212.021 190.447C211.798 190.629 211.653 190.805 211.587 190.976C211.52 191.146 211.531 191.308 211.619 191.461C211.713 191.611 211.879 191.749 212.117 191.876C212.35 192 212.574 192.086 212.789 192.136C213.009 192.182 213.218 192.193 213.414 192.168C213.611 192.143 213.788 192.082 213.946 191.983C214.109 191.881 214.211 191.771 214.254 191.653C214.297 191.534 214.266 191.388 214.161 191.215C214.056 191.041 213.858 190.815 213.568 190.537C213.283 190.268 213.082 190.029 212.966 189.82C212.849 189.611 212.83 189.418 212.907 189.241C212.984 189.065 213.162 188.889 213.442 188.714C213.752 188.52 214.099 188.389 214.481 188.322C214.874 188.254 215.277 188.254 215.69 188.32C216.108 188.39 216.516 188.53 216.913 188.741C217.306 188.95 217.565 189.173 217.693 189.412C217.827 189.653 217.84 189.899 217.735 190.149C217.639 190.398 217.435 190.643 217.121 190.882L216.217 190.454C216.399 190.31 216.521 190.163 216.583 190.014C216.651 189.867 216.649 189.725 216.576 189.586C216.509 189.444 216.364 189.314 216.142 189.196C215.829 189.03 215.506 188.943 215.173 188.937C214.851 188.93 214.572 189 214.338 189.146C214.181 189.245 214.088 189.346 214.06 189.449C214.033 189.552 214.071 189.678 214.175 189.827C214.279 189.977 214.454 190.167 214.702 190.399C215.035 190.711 215.258 190.986 215.37 191.222C215.482 191.458 215.49 191.674 215.393 191.87C215.295 192.065 215.099 192.255 214.804 192.439C214.509 192.624 214.165 192.744 213.772 192.8C213.383 192.852 212.977 192.839 212.554 192.761C212.14 192.682 211.735 192.537 211.337 192.326Z" fill="color(display-p3 0.098 0.106 0.110)" />
    <path d="M214.468 193.85L219.887 190.464L223.352 192.306L222.596 192.778L219.966 191.38L218.386 192.367L220.921 193.715L220.188 194.172L217.653 192.824L216.058 193.821L218.752 195.253L217.996 195.726L214.468 193.85Z" fill="color(display-p3 0.098 0.106 0.110)" />
    <path d="M223.918 198.874L224.674 198.402L226.025 199.121L229.933 196.679L228.582 195.961L229.338 195.489L232.866 197.365L232.11 197.837L230.759 197.118L226.851 199.56L228.202 200.278L227.447 200.75L223.918 198.874Z" fill="color(display-p3 0.098 0.106 0.110)" />
    <path d="M228.604 201.366L234.023 197.98L235.04 198.521L232.61 202.18L236.892 199.505L237.71 199.94L232.291 203.326L231.274 202.785L233.704 199.126L229.422 201.801L228.604 201.366Z" fill="color(display-p3 0.098 0.106 0.110)" />
    <path d="M235.114 204.968C234.658 204.726 234.386 204.449 234.297 204.137C234.213 203.828 234.301 203.497 234.559 203.146C234.817 202.795 235.236 202.438 235.816 202.076C236.401 201.71 236.987 201.439 237.574 201.263C238.16 201.086 238.724 201.009 239.266 201.032C239.818 201.055 240.322 201.188 240.777 201.43C241.291 201.703 241.56 202.034 241.584 202.424C241.613 202.816 241.391 203.225 240.917 203.649L239.997 203.213C240.294 202.936 240.439 202.683 240.431 202.455C240.433 202.227 240.299 202.041 240.029 201.897C239.754 201.751 239.442 201.679 239.094 201.682C238.745 201.685 238.368 201.759 237.963 201.902C237.557 202.045 237.13 202.257 236.682 202.536C236.24 202.813 235.911 203.073 235.696 203.318C235.486 203.56 235.392 203.78 235.415 203.981C235.437 204.181 235.586 204.354 235.862 204.501C236.153 204.656 236.509 204.722 236.929 204.698C237.35 204.674 237.8 204.552 238.281 204.331L239.109 204.815C238.393 205.153 237.685 205.335 236.984 205.362C236.283 205.39 235.659 205.258 235.114 204.968Z" fill="color(display-p3 0.098 0.106 0.110)" />
    <path d="M239.436 207.126L240.444 206.496L241.525 207.071L240.517 207.7L239.436 207.126Z" fill="color(display-p3 0.098 0.106 0.110)" />
  </g>
  <g filter="url(#_8beomj4)">
    <path d="M357.953 143.863L360.271 142.672L366.219 146.504L363.9 147.696L357.953 143.863Z" fill="color(display-p3 0.098 0.106 0.110)" />
    <path d="M361.336 142.125L373.629 135.807L379.576 139.64L367.283 145.957L361.336 142.125Z" fill="color(display-p3 0.098 0.106 0.110)" />
    <path d="M375.432 134.88L377.011 134.069L382.958 137.901L381.379 138.713L375.432 134.88Z" fill="color(display-p3 0.098 0.106 0.110)" />
    <path d="M378.075 133.523L379.653 132.711L385.601 136.543L384.022 137.355L378.075 133.523Z" fill="color(display-p3 0.098 0.106 0.110)" />
    <path d="M380.718 132.164L381.747 131.636L387.694 135.468L386.665 135.996L380.718 132.164Z" fill="color(display-p3 0.098 0.106 0.110)" />
    <path d="M355.861 144.939L356.889 144.41L362.837 148.242L361.808 148.771L355.861 144.939Z" fill="color(display-p3 0.098 0.106 0.110)" />
  </g>
  <a href="https://supabase.com/docs/reference/javascript/introduction" tabindex="-1">
  <g class="library-pad" data-library-pad="javascript">
  <path d="M220.475 56.716C223.009 55.449 225.991 55.449 228.525 56.716L260.5 72.703L224.5 90.703L188.5 72.703L220.475 56.716Z" fill="color(display-p3 0.074 0.078 0.082)" />
  <path d="M220.475 56.716C223.009 55.449 225.991 55.449 228.525 56.716L260.5 72.703L224.5 90.703L188.5 72.703L220.475 56.716Z" fill="url(#_8beomj11)" fill-opacity="0.1" />
  <path d="M260.5 72.703V81.703L224.5 99.703V90.703L260.5 72.703Z" fill="color(display-p3 0.129 0.141 0.149)" />
  <path d="M188.5 72.703V81.703L224.5 99.703V90.703L188.5 72.703Z" fill="color(display-p3 0.098 0.106 0.110)" />
  <path d="M224.5 99.703L188.5 81.703V72.703L220.475 56.716C223.009 55.449 225.991 55.449 228.525 56.716L260.5 72.703V81.703L224.5 99.703ZM260.5 72.703L224.5 90.703M224.5 90.703L188.5 72.703M224.5 90.703V99.703" fill="none" stroke="#FFFFFF14" stroke-width="0.5" stroke-linecap="round" />
  <g class="library-pad-icon" filter="url(#_8beomj5)">
    <path fill-rule="evenodd" clip-rule="evenodd" d="M224.875 63.787L239.194 72.054L224.875 80.32L210.556 72.054L224.875 63.787ZM223.817 77.036C223.153 76.653 223.125 76.237 223.307 75.798L221.578 75.534C221.192 76.212 221.404 77.022 222.653 77.744C223.931 78.481 225.547 78.648 226.759 77.948C227.882 77.3 227.736 76.639 227.083 75.695L226.89 75.419C226.564 74.941 226.478 74.702 226.882 74.469C227.208 74.281 227.708 74.28 228.103 74.508C228.488 74.731 228.574 74.969 228.392 75.34L230.111 75.557C230.449 74.851 230.13 74.324 229.275 73.83C228.073 73.136 226.536 73.136 225.527 73.719C224.432 74.351 224.558 75.023 225.116 75.822L225.308 76.099C225.653 76.608 225.856 76.914 225.394 77.181C225.01 77.403 224.374 77.358 223.817 77.036ZM218.611 74.021C218.149 73.754 218.274 73.46 218.436 73.121L216.679 72.873C216.324 73.442 216.39 74.125 217.467 74.747C218.661 75.436 220.112 75.541 221.505 74.736L226.098 72.085L224.752 71.308L220.177 73.949C219.504 74.337 219.053 74.277 218.611 74.021Z" fill="color(display-p3 0.129 0.141 0.149)" />
  </g>
  </g>
  </a>
  <a href="https://supabase.com/docs/reference/dart" tabindex="-1">
  <g class="library-pad" data-library-pad="flutter">
  <path d="M302.5 96.703V102.703L266.5 120.703V114.703L302.5 96.703Z" fill="color(display-p3 0.129 0.141 0.149)" />
  <path d="M262.475 80.716C265.009 79.449 267.991 79.449 270.525 80.716L302.5 96.703L266.5 114.703L230.5 96.703L262.475 80.716Z" fill="color(display-p3 0.074 0.078 0.082)" />
  <path d="M262.475 80.716C265.009 79.449 267.991 79.449 270.525 80.716L302.5 96.703L266.5 114.703L230.5 96.703L262.475 80.716Z" fill="url(#_8beomj12)" fill-opacity="0.1" />
  <path d="M230.5 96.703V102.703L266.5 120.703V114.703L230.5 96.703Z" fill="color(display-p3 0.098 0.106 0.110)" />
  <path d="M230.5 96.703V102.703L266.5 120.703L302.5 102.703V96.703L270.525 80.716C267.991 79.449 265.009 79.449 262.475 80.716L230.5 96.703ZM302.5 96.703L266.5 114.703M266.5 120.703V114.703M266.5 114.703L230.5 96.703" fill="none" stroke="#FFFFFF14" stroke-width="0.5" stroke-linecap="round" />
  <g class="library-pad-icon" filter="url(#_8beomj_flutter_inactive)">
    <path fill-rule="evenodd" clip-rule="evenodd" d="M278.262 95.145L273.821 92.587L259.511 92.587L259.509 95.137L263.379 95.143L278.262 95.145ZM267.352 96.467C267.293 96.43 267.23 96.39 267.137 96.398L259.507 96.398L259.52 98.92H259.515L259.514 100.732C259.515 100.744 259.515 100.755 259.515 100.767C259.514 100.816 259.515 100.869 259.596 100.899C260.323 101.316 261.047 101.734 261.77 102.153L263.945 103.408L263.949 98.953H271.657L267.43 96.512C267.402 96.499 267.375 96.483 267.352 96.467Z" fill="color(display-p3 0.129 0.141 0.145)" />
  </g>
  </g>
  </a>
  <a href="https://supabase.com/docs/reference/csharp" tabindex="-1">
  <g class="library-pad" data-library-pad="csharp">
  <path d="M166.475 83.716C169.009 82.449 171.991 82.449 174.525 83.716L206.5 99.703L170.5 117.703L134.5 99.703L166.475 83.716Z" fill="color(display-p3 0.074 0.078 0.082)" />
  <path d="M166.475 83.716C169.009 82.449 171.991 82.449 174.525 83.716L206.5 99.703L170.5 117.703L134.5 99.703L166.475 83.716Z" fill="url(#_8beomj13)" fill-opacity="0.1" />
  <path d="M206.5 99.703V108.703L170.5 126.703V117.703L206.5 99.703Z" fill="color(display-p3 0.129 0.141 0.149)" />
  <path d="M134.5 99.703V108.703L170.5 126.703V117.703L134.5 99.703Z" fill="color(display-p3 0.098 0.106 0.110)" />
  <path d="M170.5 126.703L134.5 108.703V99.703L166.475 83.716C169.009 82.449 171.991 82.449 174.525 83.716L206.5 99.703V108.703L170.5 126.703ZM206.5 99.703L170.5 117.703M170.5 117.703L134.5 99.703M170.5 117.703V126.703" fill="none" stroke="#FFFFFF14" stroke-width="0.5" stroke-linecap="round" />
  <g class="library-pad-icon" filter="url(#_8beomj7)">
    <path fill-rule="evenodd" clip-rule="evenodd" d="M158.6 98.01L158.608 98.011C158.709 97.826 158.888 97.66 159.129 97.526L165.64 93.767C166.168 93.462 166.797 93.354 167.52 93.467C168.358 93.594 170.141 93.873 171.902 94.147C173.819 94.444 175.708 94.739 176.325 94.832C177.12 94.951 177.613 95.226 177.828 95.686L180.211 100.794C180.306 100.999 180.31 101.191 180.224 101.372C180.142 101.554 179.96 101.724 179.697 101.876L173.177 105.64C172.918 105.788 172.634 105.887 172.328 105.939C171.993 105.995 171.637 105.994 171.302 105.937L167.944 105.415C166.115 105.13 164.285 104.845 162.453 104.562C161.718 104.451 161.256 104.196 161.025 103.795C161.004 103.759 160.985 103.722 160.969 103.685C160.784 103.266 160.114 101.834 159.517 100.555C159.137 99.745 158.787 98.996 158.606 98.602C158.511 98.408 158.509 98.204 158.6 98.01ZM170.297 101.524C169.736 101.615 169.142 101.618 168.578 101.532C168.013 101.447 167.498 101.277 167.085 101.039C166.675 100.803 166.381 100.508 166.232 100.184C166.084 99.861 166.087 99.52 166.242 99.198C166.471 98.714 167.023 98.302 167.777 98.053C168.531 97.803 169.426 97.737 170.265 97.868C171.104 97.998 171.819 98.316 172.253 98.75C172.687 99.184 172.806 99.701 172.583 100.185L175.78 100.681C176.08 100.035 176.08 99.356 175.779 98.71C175.479 98.064 174.89 97.475 174.071 97.002C173.252 96.53 172.232 96.19 171.113 96.017C169.994 95.844 168.816 95.844 167.698 96.017C166.579 96.191 165.559 96.531 164.74 97.004C163.921 97.477 163.333 98.066 163.033 98.711C162.733 99.357 162.734 100.037 163.034 100.683C163.334 101.329 163.923 101.918 164.742 102.39C165.565 102.866 166.593 103.208 167.719 103.38C168.845 103.553 170.03 103.55 171.154 103.373L170.297 101.524ZM175.107 101.711L174.644 101.443L174.267 101.661L173.895 101.446L173.432 101.713L173.804 101.928L173.246 102.251L172.874 102.036L172.411 102.303L172.783 102.518L172.406 102.736L172.869 103.003L173.246 102.785L173.809 103.11L173.432 103.328L173.895 103.595L174.272 103.378L174.649 103.595L175.112 103.328L174.735 103.11L175.294 102.788L175.671 103.006L176.134 102.738L175.757 102.521L176.132 102.304L175.669 102.036L175.292 102.254L174.729 101.929L175.107 101.711ZM173.709 102.518L174.267 102.195L174.831 102.521L174.272 102.843L173.709 102.518Z" fill="color(display-p3 0.129 0.141 0.145)" />
  </g>
  </g>
  </a>
  <a href="https://supabase.com/docs/reference/python" tabindex="-1">
  <g class="library-pad" data-library-pad="python">
  <path d="M302.975 97.216C305.509 95.949 308.491 95.949 311.025 97.216L343 113.203L307 131.203L271 113.203L302.975 97.216Z" fill="color(display-p3 0.074 0.078 0.082)" />
  <path d="M302.975 97.216C305.509 95.949 308.491 95.949 311.025 97.216L343 113.203L307 131.203L271 113.203L302.975 97.216Z" fill="url(#_8beomj14)" fill-opacity="0.1" />
  <path d="M343 113.203V122.203L307 140.203V131.203L343 113.203Z" fill="color(display-p3 0.129 0.141 0.149)" />
  <path d="M271 113.203V122.203L307 140.203V131.203L271 113.203Z" fill="color(display-p3 0.098 0.106 0.110)" />
  <path d="M307 140.203L271 122.203V113.203L302.975 97.216C305.509 95.949 308.491 95.949 311.025 97.216L343 113.203V122.203L307 140.203ZM343 113.203L307 131.203M307 131.203L271 113.203M307 131.203V140.203" fill="none" stroke="#FFFFFF14" stroke-width="0.5" stroke-linecap="round" />
  <g class="library-pad-icon" filter="url(#_8beomj8)">
    <path fill-rule="evenodd" clip-rule="evenodd" d="M312.724 107.206C313.415 107.489 314.064 107.805 314.664 108.151C315.32 108.525 315.922 108.931 316.461 109.363C317.31 110.046 317.412 110.974 316.409 111.554L312.885 113.588C312.64 113.731 312.348 113.844 312.026 113.922C311.705 113.999 311.36 114.039 311.011 114.04C310.663 114.04 310.318 114.001 309.996 113.925C309.673 113.848 309.38 113.735 309.134 113.593L305.396 111.436C304.128 110.704 301.981 110.708 300.76 111.414L299.07 112.389L297.784 111.647C296.697 111.019 296.842 110.202 297.671 109.416C298.785 108.36 299.678 107.861 301.433 107.245C302.96 106.708 304.558 106.883 305.646 107.511L310.791 110.482L311.262 110.21L307.52 108.049L308.93 107.236C309.998 106.619 310.864 106.451 312.724 107.206ZM311.5 108.451C311.687 108.343 311.793 108.197 311.794 108.045C311.795 107.893 311.691 107.746 311.506 107.637C311.319 107.529 311.065 107.469 310.801 107.469C310.536 107.469 310.283 107.529 310.095 107.637C309.908 107.745 309.803 107.892 309.803 108.045C309.803 108.197 309.908 108.344 310.095 108.452C310.282 108.559 310.535 108.619 310.799 108.619C311.062 108.618 311.314 108.559 311.5 108.451ZM313.352 113.857L314.995 112.909L316.399 113.719C317.488 114.348 317.195 115.109 316.395 115.882C315.281 116.956 314.184 117.609 312.634 118.054C311.129 118.486 309.974 118.684 308.887 118.056L303.278 114.819L302.808 115.09L306.546 117.248L305.135 118.062C304.066 118.679 302.596 118.456 301.382 118.068C299.56 117.485 298.485 116.792 297.645 115.911C296.945 115.173 296.652 114.324 297.655 113.745L301.181 111.709C302.195 111.124 303.909 111.113 304.932 111.704L308.67 113.861C309.915 114.58 312.08 114.593 313.354 113.857L313.352 113.857ZM303.969 117.658C304.068 117.605 304.147 117.542 304.202 117.471C304.257 117.401 304.287 117.325 304.29 117.247C304.293 117.17 304.268 117.093 304.218 117.021C304.168 116.95 304.094 116.884 303.999 116.83C303.904 116.775 303.791 116.732 303.667 116.703C303.543 116.674 303.41 116.66 303.276 116.662C303.142 116.663 303.01 116.681 302.888 116.712C302.765 116.744 302.656 116.79 302.565 116.847C302.174 117.073 302.172 117.439 302.559 117.662C302.652 117.715 302.762 117.757 302.883 117.786C303.004 117.814 303.134 117.829 303.265 117.829C303.396 117.828 303.525 117.813 303.646 117.784C303.767 117.755 303.877 117.711 303.969 117.658Z" fill="color(display-p3 0.129 0.141 0.149)" />
  </g>
  </g>
  </a>
  <a href="https://supabase.com/docs/reference/swift" tabindex="-1">
  <g class="library-pad" data-library-pad="swift">
  <path d="M206.975 104.716C209.509 103.449 212.491 103.449 215.025 104.716L247 120.703L211 138.703L175 120.703L206.975 104.716Z" fill="color(display-p3 0.074 0.078 0.082)" />
  <path d="M206.975 104.716C209.509 103.449 212.491 103.449 215.025 104.716L247 120.703L211 138.703L175 120.703L206.975 104.716Z" fill="url(#_8beomj15)" fill-opacity="0.1" />
  <path d="M247 120.703V129.703L211 147.703V138.703L247 120.703Z" fill="color(display-p3 0.129 0.141 0.149)" />
  <path d="M175 120.703V129.703L211 147.703V138.703L175 120.703Z" fill="color(display-p3 0.098 0.106 0.110)" />
  <path d="M211 147.703L175 129.703V120.703L206.975 104.716C209.509 103.449 212.491 103.449 215.025 104.716L247 120.703V129.703L211 147.703ZM247 120.703L211 138.703M211 138.703L175 120.703M211 138.703V147.703" fill="none" stroke="#FFFFFF14" stroke-width="0.5" stroke-linecap="round" />
  <g class="library-pad-icon" filter="url(#_8beomj9)">
    <path fill-rule="evenodd" clip-rule="evenodd" d="M221.999 122.865C221.851 122.956 221.7 123.044 221.548 123.133L221.026 123.436L214.767 127.049C214.612 127.136 214.458 127.224 214.301 127.309C213.958 127.497 213.603 127.679 213.215 127.835C212.821 127.994 212.411 128.116 211.951 128.203C211.044 128.373 210.066 128.373 209.159 128.203C208.701 128.117 208.294 127.994 207.898 127.835C207.509 127.68 207.153 127.497 206.812 127.309C206.654 127.224 206.5 127.136 206.346 127.049L205.858 126.768L200.049 123.414L199.564 123.133C199.411 123.045 199.261 122.956 199.113 122.865C198.782 122.669 198.477 122.46 198.201 122.238C197.927 122.01 197.715 121.773 197.564 121.509C197.269 120.985 197.269 120.421 197.564 119.897C197.713 119.637 197.927 119.391 198.201 119.168C198.478 118.946 198.782 118.737 199.113 118.541C199.262 118.451 199.412 118.361 199.564 118.273L200.045 117.994L206.345 114.357C206.5 114.27 206.654 114.182 206.812 114.097C207.154 113.909 207.51 113.727 207.898 113.571C208.291 113.412 208.702 113.289 209.16 113.203C210.184 113.01 211.292 113.036 212.286 113.274C212.613 113.353 212.918 113.451 213.215 113.571C213.506 113.688 213.779 113.819 214.042 113.957C214.129 114.003 214.216 114.049 214.301 114.097C214.458 114.182 214.612 114.27 214.766 114.357L215.312 114.671L221.55 118.272L222.001 118.541C222.325 118.739 222.641 118.944 222.911 119.168C223.185 119.396 223.398 119.632 223.548 119.897C223.844 120.421 223.844 120.985 223.548 121.509C223.399 121.774 223.187 122.01 222.911 122.238C222.641 122.462 222.324 122.668 221.999 122.865ZM213.22 124.299C212.918 125.98 210.84 126.77 210.997 126.486C211.643 125.325 210.032 124.786 209.054 124.607C208.968 124.596 208.883 124.581 208.799 124.567L208.784 124.564C208.778 124.563 208.772 124.562 208.765 124.561H208.77C206.716 124.198 204.863 123.19 203.831 121.696C202.996 120.477 202.819 119.141 203.323 117.863C203.43 118.277 203.607 118.689 203.859 119.089C204.876 120.71 206.861 121.782 209.052 122.087C208.608 120.11 208.931 118.059 209.262 116.437C209.301 116.142 209.382 115.849 209.503 115.562C209.625 117.204 210.265 119.539 210.634 120.296C210.736 118.178 211.485 115.931 211.483 116.017C211.463 119.273 212.453 121.694 212.453 121.694C212.498 121.781 212.527 121.848 212.548 121.904C212.736 121.855 212.925 121.802 213.112 121.74C215.2 121.053 216.571 119.679 216.977 118.126C218.019 120.534 216.586 123.138 213.44 124.226C213.366 124.25 213.293 124.275 213.22 124.299Z" fill="color(display-p3 0.129 0.141 0.145)" />
  </g>
  </g>
  </a>
  <a href="https://supabase.com/docs/reference/kotlin" tabindex="-1">
  <g class="library-pad" data-library-pad="kotlin">
  <path d="M248.975 125.716C251.509 124.449 254.491 124.449 257.025 125.716L289 141.703L253 159.703L217 141.703L248.975 125.716Z" fill="color(display-p3 0.074 0.078 0.082)" />
  <path d="M248.975 125.716C251.509 124.449 254.491 124.449 257.025 125.716L289 141.703L253 159.703L217 141.703L248.975 125.716Z" fill="url(#_8beomj16)" fill-opacity="0.1" />
  <path d="M289 141.703V150.703L253 168.703V159.703L289 141.703Z" fill="color(display-p3 0.129 0.141 0.149)" />
  <path d="M217 141.703V150.703L253 168.703V159.703L217 141.703Z" fill="color(display-p3 0.098 0.106 0.110)" />
  <path d="M253 168.703L217 150.703V141.703L248.975 125.716C251.509 124.449 254.491 124.449 257.025 125.716L289 141.703V150.703L253 168.703ZM289 141.703L253 159.703M253 159.703L217 141.703M253 159.703V168.703" fill="none" stroke="#FFFFFF14" stroke-width="0.5" stroke-linecap="round" />
  <g class="library-pad-icon" filter="url(#_8beomj10)">
    <path fill-rule="evenodd" clip-rule="evenodd" d="M253.513 149.969L239.194 141.703L253.513 133.437L267.832 141.703H253.513V149.969Z" fill="color(display-p3 0.737 0.741 0.737)" />
    <path fill-rule="evenodd" clip-rule="evenodd" d="M253.513 149.969L239.194 141.703L253.513 133.437L267.832 141.703H253.513V149.969Z" fill="color(display-p3 0.129 0.141 0.145)" />
  </g>
  </g>
  </a>
</svg>
