<svg width="410" height="176" viewBox="0 0 410 176" xmlns="http://www.w3.org/2000/svg" xmlns:xlink="http://www.w3.org/1999/xlink" style="flex-shrink: 0">
  <defs><pattern id="_9mq0sa0" patternContentUnits="objectBoundingBox" width="1" height="1"><use xlink:href="#image0_28_37" transform="translate(-0.192) scale(0.002)"/></pattern><filter id="_9mq0sa1" x="51.885" y="48.88" width="70.2" height="77.4" filterUnits="userSpaceOnUse" color-interpolation-filters="sRGB"><feFlood flood-opacity="0" result="BackgroundImageFix"/><feBlend mode="normal" in="SourceGraphic" in2="BackgroundImageFix" result="shape"/><feGaussianBlur stdDeviation="4.5" result="effect1_foregroundBlur_28_37"/></filter><filter id="_9mq0sa2" x="70.317" y="70.208" width="34.2" height="37.67" filterUnits="userSpaceOnUse" color-interpolation-filters="sRGB"><feFlood flood-opacity="0" result="BackgroundImageFix"/><feBlend mode="normal" in="SourceGraphic" in2="BackgroundImageFix" result="shape"/><feGaussianBlur stdDeviation="1.8" result="effect1_foregroundBlur_28_37"/></filter><filter id="_9mq0sa3" x="273.333" y="41.238" width="96.133" height="91.837" filterUnits="userSpaceOnUse" color-interpolation-filters="sRGB"><feFlood flood-opacity="0" result="BackgroundImageFix"/><feBlend mode="normal" in="SourceGraphic" in2="BackgroundImageFix" result="shape"/><feGaussianBlur stdDeviation="9" result="effect1_foregroundBlur_28_37"/></filter><filter id="_9mq0sa4" x="305.596" y="71.078" width="31.499" height="32.158" filterUnits="userSpaceOnUse" color-interpolation-filters="sRGB"><feFlood flood-opacity="0" result="BackgroundImageFix"/><feBlend mode="normal" in="SourceGraphic" in2="BackgroundImageFix" result="shape"/><feGaussianBlur stdDeviation="1.8" result="effect1_foregroundBlur_28_37"/></filter><filter id="_9mq0sa5" x="305.596" y="71.078" width="31.499" height="32.158" filterUnits="userSpaceOnUse" color-interpolation-filters="sRGB"><feFlood flood-opacity="0" result="BackgroundImageFix"/><feBlend mode="normal" in="SourceGraphic" in2="BackgroundImageFix" result="shape"/><feGaussianBlur stdDeviation="1.8" result="effect1_foregroundBlur_28_37"/></filter><linearGradient id="_9mq0sa6" x1="86.985" y1="37.444" x2="86.985" y2="133.42" gradientUnits="userSpaceOnUse"><stop stop-color="white" style="stop-color:white;stop-opacity:1;"/><stop offset="1" stop-color="white" stop-opacity="0" style="stop-color:none;stop-opacity:0;"/></linearGradient><linearGradient id="_9mq0sa7" x1="86.985" y1="37.444" x2="86.985" y2="133.42" gradientUnits="userSpaceOnUse"><stop stop-color="white" style="stop-color:white;stop-opacity:1;"/><stop offset="1" stop-color="white" stop-opacity="0" style="stop-color:none;stop-opacity:0;"/></linearGradient><linearGradient id="_9mq0sa8" x1="321.345" y1="37.444" x2="321.345" y2="133.42" gradientUnits="userSpaceOnUse"><stop stop-color="white" style="stop-color:white;stop-opacity:1;"/><stop offset="1" stop-color="white" stop-opacity="0" style="stop-color:none;stop-opacity:0;"/></linearGradient><linearGradient id="_9mq0sa9" x1="321.345" y1="37.444" x2="321.345" y2="133.42" gradientUnits="userSpaceOnUse"><stop stop-color="white" style="stop-color:white;stop-opacity:1;"/><stop offset="1" stop-color="white" stop-opacity="0" style="stop-color:none;stop-opacity:0;"/></linearGradient><linearGradient id="_9mq0sa10" x1="321.225" y1="86.889" x2="330.187" y2="90.647" gradientUnits="userSpaceOnUse"><stop stop-color="#249361" style="stop-color:#249361;stop-color:color(display-p3 0.141 0.577 0.38);stop-opacity:1;"/><stop offset="1" stop-color="#3ECF8E" style="stop-color:#3ECF8E;stop-color:color(display-p3 0.243 0.812 0.557);stop-opacity:1;"/></linearGradient><linearGradient id="_9mq0sa11" x1="317.252" y1="81.449" x2="321.339" y2="89.142" gradientUnits="userSpaceOnUse"><stop style="stop-color:black;stop-opacity:1;"/><stop offset="1" stop-opacity="0" style="stop-color:none;stop-opacity:0;"/></linearGradient><clipPath id="_9mq0sa12"><rect width="52.2" height="59.4" fill="#fff" style="fill:white;fill-opacity:1;" transform="translate(60.885 57.88)"/></clipPath><clipPath id="_9mq0sa13"><rect width="27" height="30.47" fill="#fff" style="fill:white;fill-opacity:1;" transform="translate(73.917 73.808)"/></clipPath></defs>
  <path d="M147.007 151.607C129.827 135.655 119.078 112.873 119.078 87.58C119.078 62.288 129.827 39.505 147.007 23.553C162.596 9.077 183.481 0.225 206.433 0.225C228.617 0.225 248.87 8.494 264.277 22.119C282.376 38.124 293.788 61.52 293.788 87.58C293.788 113.641 282.376 137.036 264.277 153.042C248.87 166.666 228.617 174.935 206.433 174.935C183.481 174.935 162.596 166.084 147.007 151.607Z" fill="url(#_9mq0sa0)" fill-opacity="0.1" style="mix-blend-mode: screen" />
  <path d="M147.007 151.607C129.827 135.655 119.078 112.873 119.078 87.58C119.078 62.288 129.827 39.505 147.007 23.553C162.596 9.077 183.481 0.225 206.433 0.225C228.617 0.225 248.87 8.494 264.277 22.119C282.376 38.124 293.788 61.52 293.788 87.58C293.788 113.641 282.376 137.036 264.277 153.042C248.87 166.666 228.617 174.935 206.433 174.935C183.481 174.935 162.596 166.084 147.007 151.607Z" fill="none" stroke="#FFFFFF14" stroke-width="0.45" stroke-dasharray="3.6 3.6" />
  <path d="M0.225 87.58C0.225 135.825 39.335 174.935 87.58 174.935C110.532 174.935 131.417 166.084 147.007 151.607C164.186 135.655 174.935 112.873 174.935 87.58C174.935 62.288 164.186 39.505 147.007 23.553C131.417 9.077 110.532 0.225 87.58 0.225C39.335 0.225 0.225 39.335 0.225 87.58Z" fill="color(display-p3 0.088 0.092 0.088)" />
  <path d="M322.121 174.935C370.366 174.935 409.476 135.825 409.476 87.58C409.476 39.335 370.366 0.225 322.121 0.225C299.937 0.225 279.684 8.494 264.277 22.119C246.178 38.124 234.766 61.52 234.766 87.58C234.766 113.641 246.178 137.036 264.277 153.042C279.684 166.666 299.937 174.935 322.121 174.935Z" fill="color(display-p3 0.088 0.092 0.088)" />
  <path d="M0.225 87.58C0.225 135.825 39.335 174.935 87.58 174.935C110.532 174.935 131.417 166.084 147.007 151.607C164.186 135.655 174.935 112.873 174.935 87.58C174.935 62.288 164.186 39.505 147.007 23.553C131.417 9.077 110.532 0.225 87.58 0.225C39.335 0.225 0.225 39.335 0.225 87.58Z" fill="none" stroke="#FFFFFF14" stroke-width="0.45" />
  <path d="M322.121 174.935C370.366 174.935 409.476 135.825 409.476 87.58C409.476 39.335 370.366 0.225 322.121 0.225C299.937 0.225 279.684 8.494 264.277 22.119C246.178 38.124 234.766 61.52 234.766 87.58C234.766 113.641 246.178 137.036 264.277 153.042C279.684 166.666 299.937 174.935 322.121 174.935Z" fill="none" stroke="#FFFFFF14" stroke-width="0.45" />
  <path d="M147.007 151.607C129.827 135.655 119.078 112.873 119.078 87.58C119.078 62.288 129.827 39.505 147.007 23.553C162.596 9.077 183.481 0.225 206.433 0.225C228.617 0.225 248.87 8.494 264.277 22.119C282.376 38.124 293.788 61.52 293.788 87.58C293.788 113.641 282.376 137.036 264.277 153.042C248.87 166.666 228.617 174.935 206.433 174.935C183.481 174.935 162.596 166.084 147.007 151.607Z" fill="none" stroke="#FFFFFF14" stroke-width="0.45" stroke-dasharray="3.6 3.6" />
  <g filter="url(#_9mq0sa1)" style="opacity: 0.3">
    <g clip-path="url(#_9mq0sa12)">
      <path d="M60.894 104.073L67.003 111.292L67.553 110.634V64.457L67.003 63.759L60.894 70.976V104.073Z" fill="color(display-p3 0.102 0.278 0.435)" />
      <path d="M67.004 111.292L78.678 117.178L79.163 116.39L79.171 58.497L78.686 57.88L67.004 63.747V111.292Z" fill="color(display-p3 0.122 0.357 0.596)" />
      <path d="M113.076 70.976L106.965 63.759L106.282 63.978L106.417 110.703L106.965 111.292L113.076 104.073V70.976Z" fill="color(display-p3 0.176 0.447 0.722)" />
      <path d="M95.291 117.178L106.965 111.292V63.747L95.283 57.88L94.731 58.634L94.739 116.321L95.291 117.178Z" fill="color(display-p3 0.322 0.580 0.812)" />
      <path d="M78.686 57.88H95.283V117.178H78.686V57.88Z" fill="color(display-p3 0.176 0.447 0.722)" />
    </g>
  </g>
  <path d="M137.565 63.112L87.345 88.78L87.345 133.42L136.094 108.504C136.997 108.043 137.565 107.114 137.565 106.1L137.565 63.112Z" fill="color(display-p3 0.088 0.092 0.088)" />
  <path d="M87.345 88.78L37.125 63.112V106.1C37.125 107.114 37.693 108.043 38.596 108.504L87.345 133.42L87.345 88.78Z" fill="color(display-p3 0.088 0.092 0.088)" />
  <path d="M137.565 63.112L92.26 39.956C89.173 38.379 85.517 38.379 82.43 39.956L37.125 63.112L87.345 88.78L137.565 63.112Z" fill="color(display-p3 0.088 0.092 0.088)" />
  <g filter="url(#_9mq0sa2)">
    <g clip-path="url(#_9mq0sa13)">
      <path d="M73.922 97.503L77.082 101.206L77.366 100.869V77.182L77.082 76.824L73.922 80.526V97.503Z" fill="color(display-p3 0.102 0.278 0.435)" />
      <path d="M77.082 101.206L83.12 104.225L83.371 103.821L83.376 74.124L83.125 73.808L77.082 76.817V101.206Z" fill="color(display-p3 0.122 0.357 0.596)" />
      <path d="M100.913 80.526L97.752 76.824L97.398 76.936L97.468 100.904L97.752 101.206L100.913 97.503V80.526Z" fill="color(display-p3 0.176 0.447 0.722)" />
      <path d="M91.714 104.225L97.752 101.206V76.817L91.71 73.808L91.424 74.195L91.428 103.786L91.714 104.225Z" fill="color(display-p3 0.322 0.580 0.812)" />
      <path d="M83.125 73.808H91.71V104.225H83.125V73.808Z" fill="color(display-p3 0.176 0.447 0.722)" />
    </g>
  </g>
  <path d="M137.205 63.112L86.985 88.78L86.985 133.42L137.205 107.752L137.205 63.112Z" fill="url(#_9mq0sa6)" fill-opacity="0.2" />
  <path d="M86.985 88.78L36.765 63.112V106.1C36.765 107.114 37.333 108.043 38.236 108.504L86.985 133.42L86.985 88.78Z" fill="url(#_9mq0sa7)" fill-opacity="0.1" />
  <path d="M86.985 88.78L36.765 63.112V106.1C36.765 107.114 37.333 108.043 38.236 108.504L86.985 133.42L86.985 88.78Z" fill="#00000066" />
  <path d="M86.985 133.42L38.236 108.504C37.333 108.043 36.765 107.114 36.765 106.1V63.112L82.07 39.956C85.157 38.379 88.814 38.379 91.9 39.956L137.205 63.112L137.205 107.752L86.985 133.42ZM137.205 63.112L86.985 88.78M86.985 88.78L36.765 63.112M86.985 88.78L86.985 133.42" fill="none" stroke="#FFFFFF40" stroke-width="0.45" stroke-linecap="round" />
  <path d="M371.565 63.112L321.345 88.78L321.345 133.42L370.094 108.504C370.997 108.043 371.565 107.114 371.565 106.1L371.565 63.112Z" fill="color(display-p3 0.088 0.092 0.088)" />
  <path d="M321.345 88.78L271.125 63.112V106.1C271.125 107.114 271.693 108.043 272.596 108.504L321.345 133.42L321.345 88.78Z" fill="color(display-p3 0.088 0.092 0.088)" />
  <path d="M371.565 63.112L326.26 39.956C323.173 38.379 319.517 38.379 316.43 39.956L271.125 63.112L321.345 88.78L371.565 63.112Z" fill="color(display-p3 0.088 0.092 0.088)" />
  <g filter="url(#_9mq0sa3)" style="opacity: 0.3">
    <path d="M320.953 89.58V114.354L291.779 99.767V74.993L320.953 89.58ZM351.019 99.767L321.845 114.354V89.58L351.019 74.993V99.767ZM350.467 74.272L321.399 88.806L292.331 74.272L321.399 59.737L350.467 74.272Z" fill="color(display-p3 0 0.384 0.224)" stroke="color(display-p3 0.243 0.812 0.557)" stroke-width="0.893" stroke-linecap="round" />
  </g>
  <path d="M371.565 63.112L321.345 88.78L321.345 133.42L371.565 107.752L371.565 63.112Z" fill="url(#_9mq0sa8)" fill-opacity="0.2" />
  <path d="M321.345 88.78L271.125 63.112V106.1C271.125 107.114 271.693 108.043 272.596 108.504L321.345 133.42L321.345 88.78Z" fill="url(#_9mq0sa9)" fill-opacity="0.1" />
  <path d="M321.345 88.78L271.125 63.112V106.1C271.125 107.114 271.693 108.043 272.596 108.504L321.345 133.42L321.345 88.78Z" fill="#00000066" />
  <path d="M321.345 133.42L272.596 108.504C271.693 108.043 271.125 107.114 271.125 106.1V63.112L316.43 39.956C319.517 38.379 323.173 38.379 326.26 39.956L371.565 63.112L371.565 107.752L321.345 133.42ZM371.565 63.112L321.345 88.78M321.345 88.78L271.125 63.112M321.345 88.78L321.345 133.42" fill="none" stroke="#FFFFFF40" stroke-width="0.45" stroke-linecap="round" />
  <g filter="url(#_9mq0sa4)">
    <g filter="url(#_9mq0sa5)" style="opacity: 0.5">
      <path d="M323.396 99.222C322.758 100.024 321.465 99.585 321.45 98.559L321.225 83.564H331.308C333.134 83.564 334.153 85.673 333.017 87.103L323.396 99.222Z" fill="url(#_9mq0sa10)" />
      <path d="M323.396 99.222C322.758 100.024 321.465 99.585 321.45 98.559L321.225 83.564H331.308C333.134 83.564 334.153 85.673 333.017 87.103L323.396 99.222Z" fill="url(#_9mq0sa11)" fill-opacity="0.2" />
      <path d="M319.295 75.092C319.932 74.289 321.225 74.729 321.241 75.755L321.339 90.75H311.382C309.556 90.75 308.537 88.641 309.673 87.21L319.295 75.092Z" fill="color(display-p3 0.243 0.812 0.557)" />
    </g>
  </g>
</svg>