<svg width="440" height="280" viewBox="0 0 440 280" xmlns="http://www.w3.org/2000/svg" style="flex-shrink: 0">
  <defs><filter id="_81kisl0" x="220.158" y="19.151" width="123.331" height="260.849" filterUnits="userSpaceOnUse" color-interpolation-filters="sRGB"><feFlood flood-opacity="0" result="BackgroundImageFix"/><feBlend mode="normal" in="SourceGraphic" in2="BackgroundImageFix" result="shape"/><feTurbulence type="fractalNoise" baseFrequency="2 2" stitchTiles="stitch" numOctaves="3" result="noise" seed="2233"/><feColorMatrix in="noise" type="luminanceToAlpha" result="alphaNoise"/><feComponentTransfer in="alphaNoise" result="coloredNoise1"><feFuncA type="discrete" tableValues="1 1 1 1 1 1 1 1 1 1 1 1 1 1 1 1 1 1 1 1 1 1 1 1 1 1 1 1 1 1 1 1 1 1 1 1 1 1 1 1 1 1 1 1 1 1 1 1 1 1 1 0 0 0 0 0 0 0 0 0 0 0 0 0 0 0 0 0 0 0 0 0 0 0 0 0 0 0 0 0 0 0 0 0 0 0 0 0 0 0 0 0 0 0 0 0 0 0 0 0"/></feComponentTransfer><feComposite operator="in" in2="shape" in="coloredNoise1" result="noise1Clipped"/><feFlood flood-color="rgba(0, 0, 0, 0.25)" result="color1Flood"/><feComposite operator="in" in2="noise1Clipped" in="color1Flood" result="color1"/><feMerge result="effect1_noise_28_454"><feMergeNode in="shape"/><feMergeNode in="color1"/></feMerge></filter><clipPath id="_81kisl1"><rect width="440" height="280" fill="#fff" style="fill:white;fill-opacity:1;"/></clipPath></defs>
  <g clip-path="url(#_81kisl1)">
    <rect x="86.505" y="57.075" width="66.99" height="195.85" fill="none" stroke="#FFFFFF14" stroke-width="0.5" />
    <g filter="url(#_81kisl0)">
      <rect x="220.408" y="19.401" width="122.831" height="260.349" fill="none" stroke="#FFFFFF14" stroke-width="0.5" stroke-dasharray="4 4" />
    </g>
    <path d="M214.633 152.683C218.012 150.994 221.988 150.994 225.367 152.683L320 200L270 225L220 250L120 200L214.633 152.683Z" fill="color(display-p3 0.098 0.102 0.098)" />
    <path fill-rule="evenodd" clip-rule="evenodd" d="M121.658 210.829C120.642 210.321 120 209.282 120 208.146V200L220 250V260L121.658 210.829Z" fill="color(display-p3 0.098 0.102 0.098)" />
    <path d="M320 210V200L270 225L220 250V260L320 210Z" fill="color(display-p3 0.110 0.122 0.129)" />
    <path d="M220 260L121.658 210.829C120.642 210.321 120 209.282 120 208.146V200L214.633 152.683C218.012 150.994 221.988 150.994 225.367 152.683L320 200V210L220 260ZM320 200L270 225L220 250M220 250L120 200M220 250V260" fill="none" stroke="#FFFFFF40" stroke-width="0.5" stroke-linecap="round" />
    <path d="M220 155L260 175L220 195L180 175L220 155Z" fill="color(display-p3 0.074 0.078 0.082)" style="opacity: 0.4" />
    <path d="M178 179.692L218 199.692L178 219.692L138 199.692L178 179.692Z" fill="color(display-p3 0.074 0.078 0.082)" style="opacity: 0.6" />
    <path d="M262 179.692L302 199.692L262 219.692L222 199.692L262 179.692Z" fill="color(display-p3 0.074 0.078 0.082)" style="opacity: 0.6" />
    <path d="M164.633 126.683C168.012 124.994 171.988 124.994 175.367 126.683L210 144L170 164L130 144L164.633 126.683Z" fill="color(display-p3 0.098 0.102 0.098)" />
    <path d="M130 144V178.146C130 179.282 130.642 180.321 131.658 180.829L170 200V164L130 144Z" fill="color(display-p3 0.074 0.078 0.082)" />
    <path d="M210 144L170 164V200L210 180V144Z" fill="color(display-p3 0.113 0.122 0.127)" />
    <path d="M170 200L131.658 180.829C130.642 180.321 130 179.282 130 178.146V144L164.633 126.683C168.012 124.994 171.988 124.994 175.367 126.683L210 144V180L170 200ZM210 144L170 164M170 164L130 144M170 164V200" fill="none" stroke="#FFFFFF14" stroke-width="0.5" stroke-linecap="round" />
    <path d="M264.633 126.683C268.012 124.994 271.988 124.994 275.367 126.683L310 144L270 164L230 144L264.633 126.683Z" fill="color(display-p3 0.098 0.102 0.098)" />
    <path d="M310 144V180L270 200V164L310 144Z" fill="color(display-p3 0.112 0.122 0.129)" />
    <path d="M230 144V178.146C230 179.282 230.642 180.321 231.658 180.829L270 200V164L230 144Z" fill="color(display-p3 0.074 0.078 0.082)" />
    <path d="M270 200L231.658 180.829C230.642 180.321 230 179.282 230 178.146V144L264.633 126.683C268.012 124.994 271.988 124.994 275.367 126.683L310 144V180L270 200ZM310 144L270 164M270 164L230 144M270 164V200" fill="none" stroke="#FFFFFF14" stroke-width="0.5" stroke-linecap="round" />
    <path d="M214.633 46.683C218.012 44.994 221.988 44.994 225.367 46.683L260 64L220 84L180 64L214.633 46.683Z" fill="color(display-p3 0 0.320 0.186)" />
    <path d="M260 64V100L220 120V84L260 64Z" fill="color(display-p3 0 0.384 0.224)" />
    <path d="M180 64V98.146C180 99.282 180.642 100.321 181.658 100.829L200 110L220 120V84L180 64Z" fill="color(display-p3 0 0.240 0.140)" />
    <path d="M219.75 84.154V119.596L200.111 109.776L181.771 100.605C180.839 100.14 180.25 99.187 180.25 98.145V64.404L219.75 84.154ZM259.75 99.846L220.25 119.596V84.154L259.75 64.404V99.846ZM214.745 46.907C218.053 45.253 221.947 45.253 225.255 46.907L259.44 64L220 83.721L180.559 64L214.745 46.907Z" fill="none" stroke="color(display-p3 0.243 0.812 0.557)" stroke-width="0.5" stroke-linecap="round" />
  </g>
</svg>